<svg xmlns="http://www.w3.org/2000/svg" viewBox="0 0 16 16">
  <defs>
    <linearGradient id="g" x1="0%" y1="0%" x2="100%" y2="100%">
      <stop offset="0%" stop-color="#0d6efd" />
      <stop offset="100%" stop-color="#0a58ca" />
    </linearGradient>
  </defs>
  <rect width="16" height="16" rx="4" fill="url(#g)"/>
  <path fill="#ffffff" d="M8 2a.5.5 0 0 1 .5.5v11a.5.5 0 0 1-1 0v-11A.5.5 0 0 1 8 2Z"/>
  <path fill="#ffffff" d="M4.354 5.646a.5.5 0 0 1 0 .708l-3 3a.5.5 0 0 1-.708-.708l3-3a.5.5 0 0 1 .708 0Zm7.292 0a.5.5 0 0 1 .708 0l3 3a.5.5 0 0 1-.708.708l-3-3a.5.5 0 0 1 0-.708Z"/>
</svg>
